<?xml version="1.0" encoding="UTF-8"?><svg id="Layer_1" xmlns="http://www.w3.org/2000/svg" viewBox="0 0 152.85 97.86"><defs><style>.cls-1{fill:#161413;fill-rule:evenodd;}</style></defs><g id="g2452"><g id="g2414"><g id="g2438"><g id="g4"><path id="path6" class="cls-1" d="M22.03,91.42s-.06.11-.07.16c-1.97,3.73-5.85,6.27-10.28,6.27-6.42,0-11.68-5.38-11.68-12.01s5.27-12.01,11.68-12.01c4.44,0,8.34,2.6,10.29,6.38.06.07.07.11.13.22.02.02-3.73,2.72-3.77,2.67-.02-.07-.04-.13-.07-.16-1.08-2.69-3.64-4.48-6.58-4.42-3.93.04-7.17,3.29-7.17,7.33s3.24,7.37,7.17,7.37c2.85,0,5.34-1.76,6.47-4.24.06-.09.07-.16.11-.24l3.77,2.69Z"/></g><g id="g8"><path id="path10" class="cls-1" d="M26.88,74.05h4.5v8.39h11.81v-8.39h4.53v23.35h-4.53v-10.26h-11.81v10.26h-4.5v-23.35Z"/></g><g id="g12"><path id="path14" class="cls-1" d="M111.21,97.4v-23.35h16.33v4.72h-11.78v4.66h10.88v4.66h-10.88v4.66h13.44v4.64h-17.99Z"/></g><g id="g16"><path id="path18" class="cls-1" d="M135.59,97.4v-23.35h4.57v18.71h12.69v4.64h-17.26Z"/></g><g id="g20"><path id="path22" class="cls-1" d="M86.67,97.4h-4.57v-23.35h6.34l10,14.04v-14.04h4.53v23.35h-3.62l-12.69-17.61v17.61Z"/></g><g id="g24"><path id="path26" class="cls-1" d="M64.9,78.77l-3.99,9.33h8.16l-4.17-9.33ZM58.86,92.76l-2.08,4.64h-5.41l10.35-23.35h6.33l10.42,23.35h-5.41l-2.1-4.64h-12.09Z"/></g></g></g><g id="g28"><path id="path30" class="cls-1" d="M78.77,65.06c-4.9,2.84-10.77,4.52-17.02,4.52-12.79,0-23.99-6.97-30.05-17.31,0-.05-.05-.05-.05-.1s-.05-.05-.05-.1l4.9-2.55,4.9-2.5c.05.05.1.1.15.19,4.18,6.78,11.68,11.3,20.19,11.3,2.74,0,5.39-.48,7.74-1.25-5.24-6.01-8.42-13.9-8.42-22.5s3.13-16.44,8.32-22.5c-2.36-.82-4.95-1.25-7.65-1.25-8.41,0-16.2,4.52-20.48,11.78-.05.05-.05.1-.05.14l-9.86-5.1c.05-.1.1-.19.14-.24C37.52,7.07,48.86,0,61.75,0c6.25,0,12.12,1.68,17.02,4.57,4.9-2.89,10.77-4.57,17.02-4.57,12.89,0,24.23,7.07,30.25,17.6.05.05.1.15.14.24l-9.86,5.1s0-.1-.05-.14c-4.28-7.26-12.07-11.78-20.48-11.78-2.69,0-5.29.43-7.65,1.25,5.19,6.06,8.32,13.95,8.32,22.5s-3.17,16.49-8.42,22.5c2.36.77,5,1.25,7.74,1.25,8.51,0,16.01-4.52,20.2-11.3.05-.1.1-.14.14-.19l4.9,2.5,4.91,2.55s-.05.05-.05.1-.05.05-.05.1c-6.06,10.34-17.26,17.31-30.05,17.31-6.25,0-12.12-1.69-17.02-4.52ZM78.77,51.26c-4.04-4.28-6.64-10.1-6.64-16.49s2.45-12.02,6.64-16.3c4.18,4.28,6.64,10,6.64,16.3s-2.6,12.21-6.64,16.49Z"/></g></g></svg>