<svg xmlns="http://www.w3.org/2000/svg" viewBox="0 0 292 65.06"><title>Colcci logo - Brandlogos.net</title><path d="M415.79,488.66l3.26-13.8H380c-7.16-.05-11.62,2.86-13,8.72l-8.44,35H394c10.86,0,15.56-1.92,18.09-14H392.27a11.82,11.82,0,0,1-11.94,6.54l5.18-22.28q2.06-6.78,11.82-6.3-.77,3.1-1.57,6.17Z" transform="translate(-358.5 -453.51)"/><path d="M476.07,474.86H436.66c-7.16,0-11.61,2.87-13,8.72l-8.45,35h35.46c10.86,0,16.78-1.48,18.64-14h0Zm-27.13,29.68A11.81,11.81,0,0,1,437,511.05l5.19-22.28q2.05-6.78,11.82-6.29l-4.92,21.31h0l-.17.77Z" transform="translate(-358.5 -453.51)"/><path d="M487.5,453.51,475,506.3c-2,8.59.62,12.27,6.77,12.27h19.31l.44-2.71h-1.58q-7,.1-4.9-8.85l12.55-53.5Z" transform="translate(-358.5 -453.51)"/><path d="M561.43,488.66l3.26-13.8H525.61c-7.16,0-11.61,2.87-13,8.72l-8.44,35h35.46c10.86,0,15.56-1.92,18.09-14H537.92A11.82,11.82,0,0,1,526,511.07l5.19-22.28q2.05-6.78,11.82-6.29l-1.57,6.17Z" transform="translate(-358.5 -453.51)"/><path d="M618,488.66l3.26-13.8H582.2c-7.16,0-11.61,2.87-13,8.72l-8.44,35h35.46c10.86,0,15.56-1.92,18.09-14H594.5a11.82,11.82,0,0,1-11.94,6.54l5.19-22.28q2.05-6.78,11.82-6.29L598,488.67Z" transform="translate(-358.5 -453.51)"/><path d="M630.44,456.89l-3,12.36h12.09a8.42,8.42,0,0,0,9.5-6.19l1.48-6.16Zm-4.36,17.9-7.68,31.51c-2,8.59.62,12.27,6.77,12.27h19.31l.44-2.71h-1.58q-7,.1-4.9-8.85l7.74-32.22Z" transform="translate(-358.5 -453.51)"/></svg>