<svg xmlns="http://www.w3.org/2000/svg" viewBox="0 0 148.75 103.06"><title>Gucci logo</title><path d="M586.37,512a51.54,51.54,0,0,1-51.53,51.53A50.83,50.83,0,0,1,512,558.16a51.48,51.48,0,1,1,0-92.41A51.68,51.68,0,0,1,586.37,512Zm-10.17,0a41.44,41.44,0,0,0-53.79-39.47,50.94,50.94,0,0,1,16.49,25.62H528.25A41.19,41.19,0,0,0,512,477.43a41,41,0,0,0-16.11,20.73H485.29a51.85,51.85,0,0,1,16.49-25.72,42.46,42.46,0,0,0-12.53-1.88,41.36,41.36,0,0,0,0,82.71,40.75,40.75,0,0,0,12.34-1.88,50.75,50.75,0,0,1-18-35.33h24.49v10.08l-12,.19A41.41,41.41,0,0,0,512,546.39,41.43,41.43,0,0,0,528,526.32l-12-.19V516.05H540.5a51.1,51.1,0,0,1-18.18,35.23,42.5,42.5,0,0,0,12.53,2A41.15,41.15,0,0,0,576.2,512Z" transform="translate(-437.63 -460.47)"/></svg>