<svg id="Layer_1" data-name="Layer 1" xmlns="http://www.w3.org/2000/svg" width="351" height="52.24" viewBox="0 0 351 52.24"><title>Tom Ford logo - Brandlogos.net</title><path d="M440.16,366c-10,0-17,7.9-17,18s7.08,18,17.2,18,17-7.9,17-18-7.14-18-17.2-18m0,44.11c-15.5,0-26.33-11.52-26.33-26.09s10.94-26.15,26.5-26.15S466.72,369.4,466.72,384s-11.06,26.15-26.56,26.15M276,366c-10,0-17,7.9-17,18s7.08,18,17.08,18,17-7.9,17-18S286,366,276,366m0,44.11c-15.5,0-26.38-11.52-26.38-26.09s10.94-26.15,26.5-26.15S302.45,369.4,302.45,384s-10.94,26.15-26.5,26.15m52.24-.88L314.5,373v36.21h-8.78V358.76h12.64l12.34,32.47L343,358.76h12.58v50.49h-8.89V373l-13.75,36.27Zm204.46-42.41H522.7v34.34h9.95c10.71,0,17.55-7,17.55-17.08s-6.61-17.26-17.55-17.26m0,42.41H513.81V358.7h19c16.26,0,26.73,10.59,26.73,25.21,0,14.27-10.3,25.33-26.85,25.33m-42.12-42.41H478.77v14.86h11.82c6.84,0,10.71-2.92,10.71-7.66.06-5.56-4.15-7.2-10.76-7.2m11.88,42.41L489.89,389.7H478.77v19.48h-8.83V358.64h22.35c11.76,0,18.13,5.56,18.13,15,0,8.6-4.86,13-11.06,14.45l13.45,21.06ZM413,366.83H384.29v14.86h26.5v8.07h-26.5v19.48H375.4V358.7H413v8.13ZM234.65,409.24h-9V366.83H208.5V358.7h43.17v8.13h-17Z" transform="translate(-208.5 -357.88)"/></svg>